<?xml version="1.0" encoding="utf-8"?>
<!-- Generator: Adobe Illustrator 24.1.2, SVG Export Plug-In . SVG Version: 6.00 Build 0)  -->
<svg version="1.1" id="Layer_1" xmlns="http://www.w3.org/2000/svg" xmlns:xlink="http://www.w3.org/1999/xlink" x="0px" y="0px"
	 viewBox="0 0 512 512" style="enable-background:new 0 0 512 512;" xml:space="preserve">
<style type="text/css">
	.st0{fill:url(#SVGID_1_);}
	.st1{fill:url(#SVGID_2_);}
</style>
<g>
	
		<linearGradient id="SVGID_1_" gradientUnits="userSpaceOnUse" x1="9.3789" y1="620.2773" x2="9.3789" y2="532.8037" gradientTransform="matrix(5.2245 0 0 -5.2245 207 3264.1428)">
		<stop  offset="0" style="stop-color:#22DFE3"/>
		<stop  offset="0.3898" style="stop-color:#25BFD8"/>
		<stop  offset="0.768" style="stop-color:#27A7CF"/>
		<stop  offset="1" style="stop-color:#289ECC"/>
	</linearGradient>
	<path class="st0" d="M256,27.2C129.6,27.2,26.6,129.6,26.6,256S129.6,484.8,256,484.8S485.4,382.4,485.4,256S382.4,27.2,256,27.2z
		 M256,453.5c-109.2,0-198-88.8-198-197.5S146.8,58.5,256,58.5S454,147.3,454,256S365.2,453.5,256,453.5z"/>
	
		<linearGradient id="SVGID_2_" gradientUnits="userSpaceOnUse" x1="4.6789" y1="620.2773" x2="4.6789" y2="532.8037" gradientTransform="matrix(5.2245 0 0 -5.2245 207 3264.1428)">
		<stop  offset="0" style="stop-color:#22DFE3"/>
		<stop  offset="0.3898" style="stop-color:#25BFD8"/>
		<stop  offset="0.768" style="stop-color:#27A7CF"/>
		<stop  offset="1" style="stop-color:#289ECC"/>
	</linearGradient>
	<path class="st1" d="M260.7,129.6c-8.9,0-15.7,6.8-15.7,15.7v111.3l-53.8,53.8c-6.3,6.3-6.3,16.2,0,21.9c3.1,3.1,7.3,4.7,11,4.7
		c3.7,0,7.8-1.6,11-4.7l58.5-58.5c3.1-3.1,4.7-6.8,4.7-11V145.2C276.4,136.4,269.6,129.6,260.7,129.6z"/>
</g>
</svg>
