<?xml version="1.0" encoding="utf-8"?>
<!-- Generator: Adobe Illustrator 24.1.2, SVG Export Plug-In . SVG Version: 6.00 Build 0)  -->
<svg version="1.1" id="Capa_1" xmlns="http://www.w3.org/2000/svg" xmlns:xlink="http://www.w3.org/1999/xlink" x="0px" y="0px"
	 viewBox="0 0 512 512" style="enable-background:new 0 0 512 512;" xml:space="preserve">
<style type="text/css">
	.st0{fill:url(#SVGID_1_);}
	.st1{fill:url(#SVGID_2_);}
	.st2{fill:url(#SVGID_3_);}
</style>
<linearGradient id="SVGID_1_" gradientUnits="userSpaceOnUse" x1="335.3113" y1="496.44" x2="335.3122" y2="20.926" gradientTransform="matrix(1 0 0 -1 0 514)">
	<stop  offset="0" style="stop-color:#C8F018"/>
	<stop  offset="8.109826e-02" style="stop-color:#B8EF19"/>
	<stop  offset="0.3908" style="stop-color:#82EA1D"/>
	<stop  offset="0.6582" style="stop-color:#5AE620"/>
	<stop  offset="0.8701" style="stop-color:#42E421"/>
	<stop  offset="1" style="stop-color:#39E322"/>
</linearGradient>
<path class="st0" d="M335.3,269.7c72.1,0,130.8-58.7,130.8-130.8S407.4,8,335.3,8c-72.1,0-130.8,58.7-130.8,130.8
	S263.2,269.7,335.3,269.7z M335.3,28c61.2,0,110.9,49.6,110.9,110.8s-49.6,110.9-110.8,110.9c-61.2,0-110.9-49.6-110.9-110.8
	c0,0,0,0,0-0.1C224.6,77.7,274.1,28.1,335.3,28z"/>
<linearGradient id="SVGID_2_" gradientUnits="userSpaceOnUse" x1="335.139" y1="496.44" x2="335.139" y2="20.926" gradientTransform="matrix(1 0 0 -1 0 514)">
	<stop  offset="0" style="stop-color:#C8F018"/>
	<stop  offset="8.109826e-02" style="stop-color:#B8EF19"/>
	<stop  offset="0.3908" style="stop-color:#82EA1D"/>
	<stop  offset="0.6582" style="stop-color:#5AE620"/>
	<stop  offset="0.8701" style="stop-color:#42E421"/>
	<stop  offset="1" style="stop-color:#39E322"/>
</linearGradient>
<path class="st1" d="M335.3,181.7c-9.1,0-16.4-7.4-16.4-16.4c0-5.5-4.5-10-10-10c-5.6,0-10.1,4.4-10.2,10
	c0,16.3,11.3,30.1,25.3,34.7v9c0,5.5,4.5,10,10,10s10-4.5,10-10v-8.4c19.5-4.9,31.3-24.7,26.4-44.2c-4.1-16.1-18.6-27.5-35.2-27.5
	c-9.1,0-16.4-7.4-16.3-16.5c0-9.1,7.4-16.4,16.5-16.3c9,0,16.3,7.4,16.3,16.4c0,5.5,4.5,10,10,10c0,0,0,0,0,0c5.4,0,9.8-4.4,9.8-9.9
	c0,0,0-0.1,0-0.1c0-16.7-11.3-31.2-27.5-35.3v-3.9c0-5.5-4.5-10-10-10s-10,4.5-10,10v4.5c-14,4.7-25.3,18.5-25.3,34.7
	c0,20.1,16.3,36.4,36.5,36.4c9.1,0,16.4,7.4,16.3,16.5C351.5,174.3,344.3,181.6,335.3,181.7L335.3,181.7z"/>
<linearGradient id="SVGID_3_" gradientUnits="userSpaceOnUse" x1="255.8983" y1="496.44" x2="255.8983" y2="20.926" gradientTransform="matrix(1 0 0 -1 0 514)">
	<stop  offset="0" style="stop-color:#C8F018"/>
	<stop  offset="8.109826e-02" style="stop-color:#B8EF19"/>
	<stop  offset="0.3908" style="stop-color:#82EA1D"/>
	<stop  offset="0.6582" style="stop-color:#5AE620"/>
	<stop  offset="0.8701" style="stop-color:#42E421"/>
	<stop  offset="1" style="stop-color:#39E322"/>
</linearGradient>
<path class="st2" d="M486.1,309.1c-12.9-15.9-36.2-18.3-52.2-5.4c-20,16.3-49.1,39.8-68,55.1c-13.3,10.7-29.7,16.8-46.8,17.4
	l-51.2,1.7c-2.1,0.1-4-1-5.1-2.7l-5.7-9.8c-1-1.6-1.1-3.5-0.3-5.2c0.8-1.7,2.3-2.9,4.1-3.2l52.9-10c18.6-3.5,31.6-21.1,29.5-40.2
	c-2-18.4-17.6-32.2-36-32.2c-0.5,0-1.1,0-1.8,0l-70.7-2.9c-28.2-1-52.4,4.4-80.7,18.1l-37,17.9c-5.1-10.9-16-17.8-28-17.8H48.1
	c-17.1-0.1-31,13.7-31.1,30.8v152.3c0.1,17.1,14,30.9,31.1,30.9H89c17.1,0,30.9-13.8,31-30.9v-10.3l39.3-7.2
	c12.7-1.9,20.7-2.6,34.2-2l107.5,5c38.7,1.7,76.6-11.1,106.3-35.9l74.5-61.8c0,0,0.1-0.1,0.1-0.1c14.9-12.7,17.1-35,5-50.4
	C486.7,309.9,486.4,309.5,486.1,309.1L486.1,309.1z M100,473.1c0,6-4.9,10.9-10.9,10.9l0,0H47.9c-6,0-10.9-4.9-10.9-10.9l0,0V320.9
	c0-6,4.9-10.9,10.9-10.9l0,0h41.2c6,0,10.9,4.9,10.9,10.9l0,0V473.1z M469,345.5l-74.4,61.7c-25.9,21.6-59,32.7-92.7,31.3l-107.5-5
	c-15.1-0.7-24.3,0.2-38.2,2.2c-0.1,0-0.2,0-0.3,0.1l-35.9,6.6v-114l42.8-20.7c25.2-12.2,46.5-17,71.2-16.1l71.2,2.9
	c0.4,0,0.9,0,1.3,0c0.1,0,0.5,0,0.8,0c8.2,0.1,15.2,6.2,16.2,14.4c1,8.6-4.8,16.6-13.3,18.3l-52.9,10c-13.9,2.6-23,16.1-20.4,30
	c0.6,2.9,1.6,5.7,3.1,8.2l5.7,9.7c4.8,8.1,13.6,12.9,23,12.6l51.2-1.7c21.4-0.8,42-8.5,58.7-21.8c18.9-15.3,48.1-38.8,68.1-55.1
	c7.2-5.6,17.5-4.7,23.6,2.1c0.2,0.4,0.5,0.8,0.8,1.2C476.8,329.3,475.9,339.7,469,345.5C469,345.5,469,345.5,469,345.5L469,345.5z"
	/>
</svg>
