<svg width="100" height="100" viewBox="0 0 100 100" fill="none" xmlns="http://www.w3.org/2000/svg">
<path d="M77.5586 38.5156H71.4453V28.0078C71.4453 16.0742 61.8555 6.36719 50.0195 6.36719C38.1836 6.36719 28.5742 16.0742 28.5742 28.0078V38.5156H22.4609C20.7226 38.5156 19.3945 39.8437 19.3945 41.582V82.4023C19.3945 83.7305 20.3125 84.9609 21.543 85.3711L49.1016 93.5351C49.4141 93.6328 49.707 93.6328 50.0195 93.6328C50.332 93.6328 50.625 93.6328 50.9375 93.5351L78.4766 85.3516C79.8047 84.9414 80.625 83.8281 80.625 82.3828V41.5625C80.6055 39.7461 79.2773 38.5156 77.5586 38.5156ZM34.6875 28.0078C34.6875 19.4336 41.5234 12.5 50 12.5C58.4766 12.5 65.3125 19.3359 65.3125 28.0078V38.5156H34.6875V28.0078ZM74.4922 80.0586L50 87.3047L25.5078 80.0586V44.6484H74.4922V80.0586Z" fill="#292929"/>
<path d="M50 73.2227C51.7383 73.2227 53.0664 71.8945 53.0664 70.1562V61.9922C53.0664 60.2539 51.7383 58.9258 50 58.9258C48.2617 58.9258 46.9336 60.2539 46.9336 61.9922V70.1562C46.9336 71.7773 48.2617 73.2227 50 73.2227Z" fill="#292929"/>
</svg>
