<svg width="100" height="100" viewBox="0 0 100 100" fill="none" xmlns="http://www.w3.org/2000/svg">
<path d="M65.4883 52.6758C79.5703 52.6758 91.0352 41.2109 91.0352 27.1289C91.0352 13.0469 79.5703 1.5625 65.4883 1.5625C51.4062 1.5625 39.9414 13.0273 39.9414 27.1094C39.9414 41.1914 51.4062 52.6758 65.4883 52.6758ZM65.4883 5.46875C77.4414 5.46875 87.1484 15.1563 87.1484 27.1094C87.1484 39.0625 77.4609 48.7695 65.5078 48.7695C53.5547 48.7695 43.8477 39.082 43.8477 27.1289C43.8477 27.1289 43.8477 27.1289 43.8477 27.1094C43.8672 15.1758 53.5352 5.48828 65.4883 5.46875Z" fill="#292929"/>
<path d="M65.4883 35.4883C63.7109 35.4883 62.2852 34.043 62.2852 32.2852C62.2852 31.2109 61.4063 30.332 60.332 30.332C59.2383 30.332 58.3594 31.1914 58.3398 32.2852C58.3398 35.4687 60.5469 38.1641 63.2813 39.0625V40.8203C63.2813 41.8945 64.1602 42.7734 65.2344 42.7734C66.3086 42.7734 67.1875 41.8945 67.1875 40.8203V39.1797C70.9961 38.2227 73.3008 34.3555 72.3438 30.5469C71.543 27.4023 68.7109 25.1758 65.4688 25.1758C63.6914 25.1758 62.2656 23.7305 62.2852 21.9531C62.2852 20.1758 63.7305 18.75 65.5078 18.7695C67.2656 18.7695 68.6914 20.2148 68.6914 21.9727C68.6914 23.0469 69.5703 23.9258 70.6445 23.9258C71.6992 23.9258 72.5586 23.0664 72.5586 21.9922V21.9727C72.5586 18.7109 70.3516 15.8789 67.1875 15.0781V14.3164C67.1875 13.2422 66.3086 12.3633 65.2344 12.3633C64.1602 12.3633 63.2813 13.2422 63.2813 14.3164V15.1953C60.5469 16.1133 58.3398 18.8086 58.3398 21.9727C58.3398 25.8984 61.5234 29.082 65.4688 29.082C67.2461 29.082 68.6719 30.5273 68.6523 32.3047C68.6523 34.043 67.2461 35.4687 65.4883 35.4883Z" fill="#292929"/>
<path d="M94.9414 60.3711C92.4219 57.2656 87.8711 56.7969 84.7461 59.3164C80.8398 62.5 75.1562 67.0898 71.4648 70.0781C68.8672 72.168 65.6641 73.3594 62.3242 73.4766L52.3242 73.8086C51.9141 73.8281 51.543 73.6133 51.3281 73.2813L50.2148 71.3672C50.0195 71.0547 50 70.6836 50.1562 70.3516C50.3125 70.0195 50.6055 69.7852 50.957 69.7266L61.2891 67.7734C64.9219 67.0898 67.4609 63.6523 67.0508 59.9219C66.6602 56.3281 63.6133 53.6328 60.0195 53.6328C59.9219 53.6328 59.8047 53.6328 59.668 53.6328L45.8594 53.0664C40.3516 52.8711 35.625 53.9258 30.0977 56.6016L22.8711 60.0977C21.875 57.9688 19.7461 56.6211 17.4023 56.6211H9.39453C6.05469 56.6016 3.33984 59.2969 3.32031 62.6367V92.3828C3.33984 95.7227 6.05469 98.418 9.39453 98.418H17.3828C20.7227 98.418 23.418 95.7227 23.4375 92.3828V90.3711L31.1133 88.9648C33.5938 88.5938 35.1562 88.457 37.793 88.5742L58.7891 89.5508C66.3477 89.8828 73.75 87.3828 79.5508 82.5391L94.1016 70.4687L94.1211 70.4492C97.0312 67.9688 97.4609 63.6133 95.0977 60.6055C95.0586 60.5273 95 60.4492 94.9414 60.3711ZM19.5312 92.4023C19.5312 93.5742 18.5742 94.5313 17.4023 94.5313H9.35547C8.18359 94.5313 7.22656 93.5742 7.22656 92.4023V62.6758C7.22656 61.5039 8.18359 60.5469 9.35547 60.5469H17.4023C18.5742 60.5469 19.5312 61.5039 19.5312 62.6758V92.4023ZM91.6016 67.4805L77.0703 79.5313C72.0117 83.75 65.5469 85.918 58.9648 85.6445L37.9687 84.668C35.0195 84.5313 33.2227 84.707 30.5078 85.0977C30.4883 85.0977 30.4687 85.0977 30.4492 85.1172L23.4375 86.4062V64.1406L31.7969 60.0977C36.7188 57.7148 40.8789 56.7773 45.7031 56.9531L59.6094 57.5195C59.6875 57.5195 59.7852 57.5195 59.8633 57.5195C59.8828 57.5195 59.9609 57.5195 60.0195 57.5195C61.6211 57.5391 62.9883 58.7305 63.1836 60.332C63.3789 62.0117 62.2461 63.5742 60.5859 63.9063L50.2539 65.8594C47.5391 66.3672 45.7617 69.0039 46.2695 71.7188C46.3867 72.2852 46.582 72.832 46.875 73.3203L47.9883 75.2148C48.9258 76.7969 50.6445 77.7344 52.4805 77.6758L62.4805 77.3437C66.6602 77.1875 70.6836 75.6836 73.9453 73.0859C77.6367 70.0977 83.3398 65.5078 87.2461 62.3242C88.6523 61.2305 90.6641 61.4063 91.8555 62.7344C91.8945 62.8125 91.9531 62.8906 92.0117 62.9687C93.125 64.3164 92.9492 66.3477 91.6016 67.4805Z" fill="#292929"/>
</svg>
