<?xml version="1.0" encoding="utf-8"?>
<!-- Generator: Adobe Illustrator 24.1.2, SVG Export Plug-In . SVG Version: 6.00 Build 0)  -->
<svg version="1.1" id="Layer_1" xmlns="http://www.w3.org/2000/svg" xmlns:xlink="http://www.w3.org/1999/xlink" x="0px" y="0px"
	 viewBox="0 0 512 512" style="enable-background:new 0 0 512 512;" xml:space="preserve">
<style type="text/css">
	.st0{fill:url(#SVGID_1_);}
	.st1{fill:url(#SVGID_2_);}
</style>
<g>
	
		<linearGradient id="SVGID_1_" gradientUnits="userSpaceOnUse" x1="9.3789" y1="618.8273" x2="9.3789" y2="530.4883" gradientTransform="matrix(5.2245 0 0 -5.2245 207 3264.1428)">
		<stop  offset="0" style="stop-color:#7330FC"/>
		<stop  offset="0.2141" style="stop-color:#8032F6"/>
		<stop  offset="0.7007" style="stop-color:#9836EA"/>
		<stop  offset="1" style="stop-color:#A137E6"/>
	</linearGradient>
	<path class="st0" d="M397.1,197.2h-31.3v-53.8c0-61.1-49.1-110.8-109.7-110.8S146.3,82.3,146.3,143.4v53.8h-31.3
		c-8.9,0-15.7,6.8-15.7,15.7v209c0,6.8,4.7,13.1,11,15.2l141.1,41.8c1.6,0.5,3.1,0.5,4.7,0.5c1.6,0,3.1,0,4.7-0.5L401.8,437
		c6.8-2.1,11-7.8,11-15.2v-209C412.7,203.5,405.9,197.2,397.1,197.2z M177.6,143.4c0-43.9,35-79.4,78.4-79.4s78.4,35,78.4,79.4v53.8
		H177.6V143.4z M381.4,409.9L256,447l-125.4-37.1V228.6h250.8V409.9z"/>
	
		<linearGradient id="SVGID_2_" gradientUnits="userSpaceOnUse" x1="9.3789" y1="618.8273" x2="9.3789" y2="530.4883" gradientTransform="matrix(5.2245 0 0 -5.2245 207 3264.1428)">
		<stop  offset="0" style="stop-color:#7330FC"/>
		<stop  offset="0.2141" style="stop-color:#8032F6"/>
		<stop  offset="0.7007" style="stop-color:#9836EA"/>
		<stop  offset="1" style="stop-color:#A137E6"/>
	</linearGradient>
	<path class="st1" d="M256,374.9c8.9,0,15.7-6.8,15.7-15.7v-41.8c0-8.9-6.8-15.7-15.7-15.7c-8.9,0-15.7,6.8-15.7,15.7v41.8
		C240.3,367.5,247.1,374.9,256,374.9z"/>
</g>
</svg>
