<svg width="100" height="100" viewBox="0 0 100 100" fill="none" xmlns="http://www.w3.org/2000/svg">
<path d="M50 5.3125C25.3125 5.3125 5.1953 25.3125 5.1953 50C5.1953 74.6875 25.3125 94.6875 50 94.6875C74.6875 94.6875 94.8047 74.6875 94.8047 50C94.8047 25.3125 74.6875 5.3125 50 5.3125ZM50 88.5742C28.6719 88.5742 11.3281 71.2305 11.3281 50C11.3281 28.7695 28.6719 11.4258 50 11.4258C71.3281 11.4258 88.6719 28.7695 88.6719 50C88.6719 71.2305 71.3281 88.5742 50 88.5742Z" fill="#292929"/>
<path d="M50.9179 25.3125C49.1797 25.3125 47.8515 26.6406 47.8515 28.3789V50.1172L37.3437 60.625C36.1133 61.8555 36.1133 63.7891 37.3437 64.9023C37.9492 65.5078 38.7695 65.8203 39.4922 65.8203C40.2148 65.8203 41.0156 65.5078 41.6406 64.9023L53.0664 53.4766C53.6718 52.8711 53.9843 52.1484 53.9843 51.3281V28.3594C53.9843 26.6406 52.6562 25.3125 50.9179 25.3125Z" fill="#292929"/>
</svg>
